HIERARCHY
ROOT Hips
{
	OFFSET 0.00000 0.00000 0.00000
	CHANNELS 6 Xposition Yposition Zposition Zrotation Yrotation Xrotation 
	JOINT LHipJoint
	{
		OFFSET 0 0 0
		CHANNELS 3 Zrotation Yrotation Xrotation
		JOINT LeftUpLeg
		{
			OFFSET 1.46561 -1.72757 0.83774
			CHANNELS 3 Zrotation Yrotation Xrotation
			JOINT LeftLeg
			{
				OFFSET 2.48915 -6.83890 0.00000
				CHANNELS 3 Zrotation Yrotation Xrotation
				JOINT LeftFoot
				{
					OFFSET 2.60555 -7.15868 0.00000
					CHANNELS 3 Zrotation Yrotation Xrotation
					JOINT LeftToeBase
					{
						OFFSET 0.19248 -0.52884 2.26738
						CHANNELS 3 Zrotation Yrotation Xrotation
						End Site
						{
							OFFSET 0.00000 -0.00000 1.17015
						}
					}
				}
			}
		}
	}
	JOINT RHipJoint
	{
		OFFSET 0 0 0
		CHANNELS 3 Zrotation Yrotation Xrotation
		JOINT RightUpLeg
		{
			OFFSET -1.46918 -1.72757 0.83774
			CHANNELS 3 Zrotation Yrotation Xrotation
			JOINT RightLeg
			{
				OFFSET -2.49034 -6.84216 0.00000
				CHANNELS 3 Zrotation Yrotation Xrotation
				JOINT RightFoot
				{
					OFFSET -2.65971 -7.30750 0.00000
					CHANNELS 3 Zrotation Yrotation Xrotation
					JOINT RightToeBase
					{
						OFFSET -0.19227 -0.52827 2.30785
						CHANNELS 3 Zrotation Yrotation Xrotation
						End Site
						{
							OFFSET -0.00000 -0.00000 1.18972
						}
					}
				}
			}
		}
	}
	JOINT LowerBack
	{
		OFFSET 0 0 0
		CHANNELS 3 Zrotation Yrotation Xrotation
		JOINT Spine
		{
			OFFSET 0.02432 2.19909 -0.28000
			CHANNELS 3 Zrotation Yrotation Xrotation
			JOINT Spine1
			{
				OFFSET 0.03714 2.21816 -0.15261
				CHANNELS 3 Zrotation Yrotation Xrotation
				JOINT Neck
				{
					OFFSET 0 0 0
					CHANNELS 3 Zrotation Yrotation Xrotation
					JOINT Neck1
					{
						OFFSET -0.01896 1.56165 0.21681
						CHANNELS 3 Zrotation Yrotation Xrotation
						JOINT Head
						{
							OFFSET 0.02744 1.56009 0.06764
							CHANNELS 3 Zrotation Yrotation Xrotation
							End Site
							{
								OFFSET 0.01212 1.60574 0.00298
							}
						}
					}
				}
				JOINT LeftShoulder
				{
					OFFSET 0 0 0
					CHANNELS 3 Zrotation Yrotation Xrotation
					JOINT LeftArm
					{
						OFFSET 3.05595 1.48048 -0.60794
						CHANNELS 3 Zrotation Yrotation Xrotation
						JOINT LeftForeArm
						{
							OFFSET 5.20607 -0.00000 -0.00000
							CHANNELS 3 Zrotation Yrotation Xrotation
							JOINT LeftHand
							{
								OFFSET 3.39961 -0.00000 0.00000
								CHANNELS 3 Zrotation Yrotation Xrotation
								JOINT LeftFingerBase
								{
									OFFSET 0 0 0
									CHANNELS 3 Zrotation Yrotation Xrotation
									JOINT LeftHandIndex1
									{
										OFFSET 0.51969 -0.00000 0.00000
										CHANNELS 3 Zrotation Yrotation Xrotation
										End Site
										{
											OFFSET 0.41899 -0.00000 0.00000
										}
									}
								}
								JOINT LThumb
								{
									OFFSET 0 0 0
									CHANNELS 3 Zrotation Yrotation Xrotation
									End Site
									{
										OFFSET 0.42539 -0.00000 0.42539
									}
								}
							}
						}
					}
				}
				JOINT RightShoulder
				{
					OFFSET 0 0 0
					CHANNELS 3 Zrotation Yrotation Xrotation
					JOINT RightArm
					{
						OFFSET -2.99052 1.57608 -0.69102
						CHANNELS 3 Zrotation Yrotation Xrotation
						JOINT RightForeArm
						{
							OFFSET -5.32214 -0.00000 0.00000
							CHANNELS 3 Zrotation Yrotation Xrotation
							JOINT RightHand
							{
								OFFSET -3.51208 -0.00000 0.00000
								CHANNELS 3 Zrotation Yrotation Xrotation
								JOINT RightFingerBase
								{
									OFFSET 0 0 0
									CHANNELS 3 Zrotation Yrotation Xrotation
									JOINT RightHandIndex1
									{
										OFFSET -0.58668 -0.00000 0.00000
										CHANNELS 3 Zrotation Yrotation Xrotation
										End Site
										{
											OFFSET -0.47300 -0.00000 0.00000
										}
									}
								}
								JOINT RThumb
								{
									OFFSET 0 0 0
									CHANNELS 3 Zrotation Yrotation Xrotation
									End Site
									{
										OFFSET -0.48022 -0.00000 0.48022
									}
								}
							}
						}
					}
				}
			}
		}
	}
}
MOTION
Frames: 8
Frame Time: .0083333
0.2457 16.1236 -6.5976 -0.6979 4.5545 -3.2836 0.0000 0.0000 0.0000 -17.7237 -2.9761 -24.7942 8.5746 16.5261 54.6070 1.4307 3.0001 -23.8488 0.0692 -1.6968 -4.6686 0.0000 0.0000 0.0000 15.7351 -0.3695 -26.6563 -9.5924 -17.1742 58.1173 -1.7625 5.3639 -23.9557 -0.0893 1.9277 -5.3058 1.4896 0.6549 6.2362 3.2553 0.9512 4.1313 2.4629 0.4692 0.7304 -2.7784 -1.1858 -9.9700 0.3110 -1.0843 36.1005 0.4758 -0.7530 13.9663 -0.0000 -0.0000 0.0000 -74.9726 -10.2168 19.2642 23.3981 -34.5213 -7.3627 -0.0000 0.0000 -27.7755 31.9551 -10.6172 -6.5562 -7.1250 0.0000 -0.0000 3.4218 17.5349 -2.2359 -0.0000 -0.0000 0.0000 82.7923 13.7753 7.0708 -18.7887 29.1552 -4.9275 0.0000 0.0000 29.0510 -22.5956 -22.7641 9.1479 7.1250 -0.0000 -0.0000 6.8086 -54.2939 -1.5605
0.2537 16.1539 -6.5797 -0.6114 4.0757 -2.8747 0.0000 0.0000 0.0000 -17.8613 -2.7163 -24.6329 8.3043 16.3386 53.6514 1.4443 3.4028 -24.1486 0.0687 -1.6909 -4.6522 0.0000 0.0000 0.0000 15.6633 -0.2682 -26.8600 -9.4552 -17.0919 57.6515 -1.7458 5.7858 -23.7939 -0.0793 1.8170 -5.0003 1.4613 0.7647 5.9420 3.2029 1.0832 4.1821 2.4220 0.5350 0.9422 -2.6689 -1.1877 -9.9278 0.2828 -1.1075 36.3145 0.4419 -0.7533 14.0541 0.0000 -0.0000 0.0000 -75.5118 -8.7296 17.2202 20.7276 -31.5090 -5.9069 -0.0000 0.0000 -26.8119 31.1182 -9.4671 -5.6705 -7.1250 0.0000 -0.0000 2.9475 18.9657 -1.8320 0.0000 -0.0000 0.0000 82.8066 12.5830 4.6993 -17.1192 27.0147 -4.1413 0.0000 0.0000 31.5569 -22.0492 -23.5317 9.1857 7.1250 -0.0000 -0.0000 7.6631 -54.9822 -1.8867
0.2616 16.1916 -6.5620 -0.4698 3.5891 -2.3670 0.0000 0.0000 0.0000 -18.0714 -2.4944 -24.4721 7.9901 16.1120 52.5271 1.4483 3.8624 -24.4094 0.0688 -1.6919 -4.6550 0.0000 0.0000 0.0000 15.5756 -0.1098 -27.0703 -9.2711 -16.9790 57.0229 -1.7359 6.0634 -23.6985 -0.0639 1.6306 -4.4858 1.3533 0.8569 5.5598 3.1353 1.1872 4.1999 2.4139 0.5852 1.1685 -2.5385 -1.1714 -9.8792 0.2069 -1.0930 36.4835 0.3902 -0.7408 14.1190 0.0000 -0.0000 0.0000 -76.0291 -7.2901 14.9107 18.1062 -28.2929 -4.5995 -0.0000 0.0000 -25.2213 30.0423 -8.3096 -4.7778 -7.1250 0.0000 -0.0000 2.2802 20.4065 -1.3431 0.0000 -0.0000 0.0000 82.8315 11.4753 1.9660 -15.5124 24.8551 -3.4385 0.0000 0.0000 34.2471 -21.4564 -24.2561 9.1721 7.1250 -0.0000 -0.0000 8.5750 -55.6085 -2.2444
0.2700 16.2370 -6.5456 -0.3009 3.0937 -1.8199 0.0000 0.0000 0.0000 -18.3286 -2.2717 -24.3238 7.6574 15.8614 51.3192 1.4311 4.3689 -24.5424 0.0705 -1.7131 -4.7134 0.0000 0.0000 0.0000 15.5004 0.0682 -27.2198 -9.0343 -16.8297 56.2086 -1.7326 6.1943 -23.6649 -0.0458 1.3816 -3.7994 1.2134 0.9260 5.1666 3.0440 1.2610 4.1963 2.4017 0.6197 1.3798 -2.3869 -1.1384 -9.8165 0.1101 -1.0535 36.5721 0.3296 -0.7176 14.1429 0.0000 0.0000 0.0000 -76.5036 -5.9087 12.1682 15.5493 -24.9058 -3.4540 -0.0000 0.0000 -22.8962 28.8218 -7.2343 -3.9638 -7.1250 0.0000 -0.0000 1.4748 21.7368 -0.8240 0.0000 0.0000 0.0000 82.8907 10.4493 -1.2564 -13.9988 22.7330 -2.8277 0.0000 0.0000 37.1520 -20.8644 -24.8303 9.0935 7.1250 -0.0000 -0.0000 9.4444 -56.0738 -2.5818
0.2791 16.2898 -6.5312 -0.1486 2.5915 -1.2865 0.0000 0.0000 0.0000 -18.5825 -2.0334 -24.1939 7.3296 15.6033 50.1102 1.3922 4.8470 -24.5035 0.0696 -1.7021 -4.6831 0.0000 0.0000 0.0000 15.4809 0.2440 -27.2460 -8.7409 -16.6381 55.1898 -1.7348 6.1816 -23.6817 -0.0285 1.0906 -2.9980 1.0917 0.9667 4.8193 2.9356 1.3010 4.1891 2.3628 0.6378 1.5639 -2.2270 -1.0879 -9.7617 0.0241 -0.9951 36.5752 0.2744 -0.6840 14.1287 0.0000 -0.0000 0.0000 -76.9400 -4.6072 8.7159 13.0827 -21.4083 -2.4834 -0.0000 0.0000 -19.6134 27.5349 -6.2242 -3.2351 -7.1250 0.0000 -0.0000 0.5889 22.9680 -0.3124 0.0000 -0.0000 0.0000 82.9912 9.4820 -5.0270 -12.6278 20.7394 -2.3198 0.0000 0.0000 40.3263 -20.2848 -25.2705 8.9664 7.1250 -0.0000 -0.0000 10.2550 -56.4003 -2.8879
0.2888 16.3481 -6.5190 -0.0530 2.0869 -0.7963 0.0000 0.0000 0.0000 -18.7782 -1.7893 -24.0869 7.0232 15.3514 48.9622 1.3381 5.2307 -24.3010 0.0640 -1.6319 -4.4893 0.0000 0.0000 0.0000 15.5527 0.4133 -27.1154 -8.3949 -16.4022 53.9729 -1.7420 6.0551 -23.7427 -0.0138 0.7598 -2.0881 1.0257 0.9791 4.5499 2.8203 1.3084 4.1842 2.2856 0.6409 1.7096 -2.0708 -1.0213 -9.7220 -0.0278 -0.9253 36.4989 0.2352 -0.6420 14.0813 -0.0000 0.0000 0.0000 -77.3453 -3.3700 4.1558 10.7545 -17.9110 -1.6997 -0.0000 0.0000 -14.9987 26.2987 -5.2345 -2.5815 -7.1250 0.0000 -0.0000 -0.2877 24.1449 0.1448 -0.0000 0.0000 0.0000 83.1302 8.5248 -9.2807 -11.4589 18.9882 -1.9226 0.0000 0.0000 43.6968 -19.6890 -25.6630 8.8091 7.1250 -0.0000 -0.0000 11.0701 -56.6716 -3.1942
0.2981 16.4094 -6.5094 -0.0290 1.5909 -0.3552 0.0000 0.0000 0.0000 -18.8865 -1.5698 -24.0003 6.7453 15.1136 47.9044 1.2774 5.4965 -23.9776 0.0542 -1.5025 -4.1325 0.0000 0.0000 0.0000 15.7232 0.5860 -26.8323 -8.0086 -16.1256 52.5936 -1.7523 5.8215 -23.8366 -0.0043 0.4248 -1.1672 1.0188 0.9665 4.3655 2.7068 1.2868 4.1816 2.1766 0.6310 1.8126 -1.9297 -0.9422 -9.6939 -0.0336 -0.8504 36.3461 0.2180 -0.5942 14.0019 0.0000 0.0000 0.0000 -77.7329 -2.1553 -2.0515 8.6348 -14.5765 -1.1064 -0.0000 0.0000 -8.4752 25.2028 -4.1451 -1.9483 -7.1250 0.0000 -0.0000 -1.0831 25.4002 0.5139 0.0000 0.0000 0.0000 83.3026 7.5132 -13.7741 -10.5375 17.5760 -1.6335 0.0000 0.0000 47.0946 -19.0602 -26.1009 8.6431 7.1250 -0.0000 -0.0000 11.9520 -56.9775 -3.5424
0.3061 16.4719 -6.5014 -0.0734 1.1126 0.0457 0.0000 0.0000 0.0000 -18.9016 -1.3993 -23.9177 6.4934 14.8900 46.9311 1.2196 5.6468 -23.6037 0.0421 -1.3242 -3.6413 0.0000 0.0000 0.0000 15.9772 0.7702 -26.4291 -7.6001 -15.8171 51.1093 -1.7633 5.4990 -23.9466 -0.0004 0.1242 -0.3412 1.0479 0.9323 4.2397 2.6058 1.2390 4.1868 2.0598 0.6087 1.8923 -1.8090 -0.8524 -9.6926 -0.0023 -0.7682 36.1309 0.2202 -0.5414 13.9006 0.0000 -0.0000 0.0000 -78.1254 -0.8938 -10.5021 6.8193 -11.6215 -0.6948 -0.0000 -0.0000 0.6492 24.3388 -2.9077 -1.3145 -7.1250 0.0000 -0.0000 -1.7286 26.7881 0.7643 0.0000 -0.0000 0.0000 83.4907 6.3960 -18.0559 -9.8877 16.5638 -1.4428 0.0000 0.0000 50.1999 -18.3523 -26.6630 8.4669 7.1250 -0.0000 -0.0000 12.9957 -57.3855 -3.9873
